<?xml version="1.0" encoding="UTF-8"?>
<!DOCTYPE svg PUBLIC "-//W3C//DTD SVG 1.1//EN" "http://www.w3.org/Graphics/SVG/1.1/DTD/svg11.dtd">
<!-- Creator: CorelDRAW 2017 -->
<svg xmlns="http://www.w3.org/2000/svg" xml:space="preserve" width="350.107mm" height="268.343mm" version="1.1" style="shape-rendering:geometricPrecision; text-rendering:geometricPrecision; image-rendering:optimizeQuality; fill-rule:evenodd; clip-rule:evenodd"
viewBox="0 0 35011 26834"
 xmlns:xlink="http://www.w3.org/1999/xlink">
 <defs>
  <style type="text/css">
   <![CDATA[
    .fil0 {fill:#2B2B2B}
   ]]>
  </style>
 </defs>
 <g id="Layer_x0020_1">
  <metadata id="CorelCorpID_0Corel-Layer"/>
  <path class="fil0" d="M19224 17652c200,-283 662,-842 889,-1034 -153,527 -1095,1657 -1499,2206 60,-240 581,-963 611,-1172zm-3437 0c-200,-283 -662,-842 -889,-1034 153,527 1095,1657 1499,2206 -60,-240 -581,-963 -611,-1172zm2727 6328c-85,-547 -113,-1070 -119,-1422 -14,-744 92,-1333 265,-2048 16,-38 33,-76 51,-111 403,-825 1362,-1409 2660,-1266 683,75 1006,254 1377,602 251,304 230,416 238,694 7,240 159,484 548,408 -294,-104 -363,-202 -351,-397 41,-675 -78,-753 -246,-907 562,102 1080,387 1528,711 4,39 6,78 8,118 -40,273 -249,572 -279,724 157,-98 416,-339 499,-671 64,51 127,101 188,152 34,29 70,57 108,84 101,335 285,433 581,521 -71,-161 -136,-247 -190,-322 61,19 127,34 197,45 -155,774 774,733 953,1162 234,560 1390,353 1470,184 -559,151 -955,-30 -1188,-242 -28,-26 -97,-217 -231,-339 -223,-204 -545,-369 -550,-375 -183,-212 -133,-399 227,-206 261,139 818,278 1251,112 -204,-103 -592,-115 -834,-232 -250,-121 -416,-337 -773,-339 -413,-2 -488,20 -663,-128 -9,-80 -13,-180 -11,-311 2,-124 -10,-234 -32,-334 237,62 458,157 708,227 227,64 355,66 462,50 10,7 20,14 29,21 94,65 189,123 301,193l1217 723c751,435 478,761 876,1029 193,130 500,228 789,169 -362,-251 -799,-76 -886,-798 664,111 1439,169 2037,-104 -1591,-1 -883,222 -2392,-404 151,-75 189,-49 318,-169 90,-84 140,-158 265,-229 243,-138 530,41 741,108 -45,-126 -208,-235 -364,-278 -676,-185 -742,508 -1478,275 -264,-84 -590,-378 -757,-513 -27,-22 -53,-41 -78,-59 89,14 194,35 319,68 -69,-326 -316,-279 -569,-226 -18,-11 -37,-22 -56,-34l-9 -6c92,-93 271,-219 471,-325 485,-53 803,-90 1327,56 12,50 25,107 38,173 137,213 224,366 515,508 -21,-50 -273,-339 -265,-590 76,27 156,57 241,91 463,184 1806,839 2270,763l-126 -59c-691,-194 -796,-305 -1451,-730 -250,-163 -483,-280 -701,-366 141,-61 358,-95 679,-88 -12,-21 -25,-39 -39,-56 526,28 983,66 1229,294 -164,-280 -640,-445 -949,-530 -292,-81 -1035,-172 -1223,-267 -292,-54 -508,-147 -687,-270l1603 125c-399,-167 -604,-229 -1094,-210 -383,16 -511,-140 -803,-169 -6,-6 -12,-12 -17,-18 499,34 719,-67 1212,-122 293,-33 458,-55 575,-57 17,6 34,13 53,18l-14 -18c176,3 253,61 589,207 -126,-297 -392,-439 -716,-497 -6,-76 -6,-181 -15,-353 139,27 273,47 403,60 228,118 482,254 591,300 502,166 605,441 814,612 -87,-451 -357,-630 -719,-840 -27,-16 -55,-31 -83,-48 395,-5 736,-45 1023,-48 330,217 645,392 893,607 298,258 720,781 1167,553 229,159 578,289 1237,354 -43,-47 -525,-268 -966,-589 7,-9 14,-17 20,-26 -11,6 -23,11 -34,16 -248,-183 -481,-397 -613,-629 534,-12 905,51 1271,-4 287,-42 573,-340 631,-489 -360,260 -820,363 -1308,248 178,-182 337,-445 606,-667 119,-30 235,-58 235,-58 -48,-8 -92,-15 -133,-20 158,-112 351,-208 600,-271 -386,-115 -747,79 -1065,314 -91,35 -190,87 -323,156 -241,124 -470,245 -691,340 -76,-90 -1093,-108 -1006,-225 62,-84 170,-176 306,-267 62,-4 140,-16 244,-46 198,-56 890,-375 1015,-507 -11,-1 -22,-2 -32,-3 234,-61 461,-79 651,-30 -98,-240 -535,-283 -895,-236 -344,45 -777,278 -1182,523 -165,-26 -353,-44 -591,34 -486,158 -500,148 -1024,76 -379,-52 -742,-18 -1105,-47l3 -2c17,-12 33,-23 49,-33 138,-46 264,-110 383,-183 137,-23 295,-1 585,38 -71,-113 -208,-171 -351,-195 239,-173 449,-349 658,-419 680,-227 1094,489 1876,442 -287,-123 -704,-299 -732,-528 236,-44 385,-200 733,-264 108,34 211,73 305,118 -245,-352 -609,-518 -986,-585 129,-68 286,-147 483,-239 -297,57 -560,127 -797,205 -730,-35 -1399,217 -1238,136 277,-215 257,-466 346,-678 154,71 341,112 585,94 -234,-96 -387,-174 -492,-246 58,-65 141,-123 265,-172 343,-134 633,-117 903,-56 61,28 119,59 182,92 -9,-18 -20,-36 -31,-54 44,12 88,25 131,39 -65,-125 -212,-223 -396,-282 -216,-127 -504,-191 -796,-192 280,-220 945,-309 1331,-381 -409,-174 -1109,21 -1382,107 -101,32 -222,63 -349,87 -239,-29 -450,-102 -660,-121 118,-49 251,-81 405,-104 403,-59 861,-16 1112,-425 -259,157 -815,240 -958,198 216,-125 479,-610 410,-916 -71,162 -78,450 -593,761 -195,118 -499,207 -729,336 -91,51 -177,108 -262,166 -88,12 -176,28 -267,49 61,-117 316,-381 446,-465 288,-187 510,-113 928,-413 -193,86 -493,46 -906,177 3,-6 6,-12 10,-18l-23 23c-45,15 -92,31 -139,51 -214,86 -454,252 -693,449 -53,44 -102,84 -147,123 19,-202 135,-396 256,-578 -610,325 -385,698 -721,918 -196,128 -609,199 -1274,224 153,-212 116,-268 349,-434 179,-128 511,-126 337,-640 -21,328 -106,359 -410,472 -150,55 -310,128 -511,444 -59,-98 -107,-254 -128,-402 -15,-111 -15,-183 -5,-242 47,-91 108,-199 196,-335 57,-88 126,-169 223,-249 113,2 229,0 348,-8 707,-151 749,143 1280,230 379,17 776,-168 1167,-278l-257 -10c456,-128 725,-501 1327,-561 76,52 149,114 222,185 254,245 589,657 1121,486 -375,-53 -746,-366 -869,-655 27,4 54,8 82,13 1356,242 879,996 1545,1010 -318,-306 -296,-264 -420,-706 583,29 404,-86 1188,-235 -802,-196 -690,63 -1142,-24 -91,-18 -407,-47 -613,-151 194,-93 465,-132 709,-214 15,5 29,10 42,14 429,138 907,256 1400,72 -328,-32 -798,-111 -1110,-253 106,-83 188,-194 229,-350 -97,85 -243,169 -423,242 -291,-170 -647,-269 -998,-274 125,-95 197,-93 378,-221 196,-138 249,-325 556,-456 -454,-22 -386,126 -643,280 -216,130 -457,191 -658,345 -48,36 -87,73 -125,112 -159,44 -310,113 -443,209 -132,95 -319,154 -992,102 12,-25 29,-51 51,-76 55,4 113,10 176,17 -33,-33 -72,-59 -115,-78 183,-164 524,-325 816,-450 65,-7 129,-17 190,-30 333,-71 457,-214 584,-361 573,-296 1210,-385 1584,-147 -734,-880 -1712,-55 -1873,-20 29,-104 55,-194 83,-274 103,-9 213,-3 332,20 -103,-75 -198,-119 -284,-142 125,-281 318,-465 839,-862 -542,31 -881,513 -975,634 24,-47 29,-136 19,-243 72,-125 147,-284 227,-488 -101,123 -185,222 -257,301 -54,-246 -168,-508 -314,-565 69,205 114,486 114,767 -252,223 -288,99 -622,370 62,-360 95,-506 561,-915 -972,180 -751,1542 -1270,1771 52,-228 13,-221 34,-469 5,-63 26,-115 67,-243 -76,79 -126,136 -160,183 21,-137 53,-271 107,-397 64,-149 212,-302 271,-387 -692,205 -458,708 -652,845 -176,-64 -248,-183 -285,-319 141,-47 268,-147 376,-355 -54,32 -178,182 -400,241 -22,-135 -29,-278 -77,-400 -43,167 -63,306 -66,422 -103,5 -223,-10 -360,-58 -110,-39 -36,-8 -76,-37 108,-192 326,-214 530,-349 -506,20 -940,469 -1279,618 -157,69 -320,145 -444,226 -154,102 -223,155 -353,283 -132,130 -230,229 -315,314 -15,-1 -30,-2 -46,-4 42,-264 168,-473 553,-682 -311,-71 -550,111 -717,338 -197,6 -422,10 -640,25 20,-16 40,-32 60,-51 -346,137 -532,65 -746,-142 263,-121 420,-218 531,-306 380,4 778,-4 1207,-92 279,82 591,98 818,7 209,-84 254,-244 346,-416 202,-83 408,-159 623,-206 296,-64 1307,-98 1444,-164 -190,-154 -421,-80 -643,-80 318,-186 508,-147 847,-262 300,-102 571,-243 871,-331l61 -54c-319,-34 -437,82 -687,170 -248,88 -568,75 -837,69 47,-96 134,-173 242,-237 81,8 144,-5 211,-53l-57 -27c268,-121 597,-201 792,-324 -248,11 -698,120 -981,235l-75 -35c-241,-100 -332,-174 -387,-323 108,-10 217,-35 332,-100 226,-128 407,-429 869,-477 -357,-234 -701,193 -989,295 -80,28 -165,43 -270,45 -17,-87 -35,-190 -61,-315 8,-5 15,-10 22,-15 271,-53 531,-147 619,-427 -189,78 -278,142 -392,169 34,-76 58,-171 68,-293 -69,134 -145,230 -247,305 -45,-3 -96,-10 -156,-21 54,-126 93,-236 -57,-512 7,153 46,270 -76,483 -275,-72 -458,-258 -764,-263 -410,-7 -676,227 -855,412 -4,-188 58,-396 345,-671 -19,9 -38,17 -56,26 361,-240 665,-87 954,-198 269,-104 305,-378 590,-681 -308,77 -470,438 -699,490 -281,63 -419,28 -733,84l-244 9c28,-93 52,-194 67,-300 60,-50 98,-109 146,-224l-129 57c7,-127 -1,-258 -28,-388 -11,196 -20,316 -58,426 -266,117 -569,249 -862,360 -21,-115 -49,-235 -95,-348 271,-311 172,-461 1003,-958 -469,18 -782,401 -1055,584 56,-352 232,-768 117,-1147l-20 57c13,335 -245,965 -435,1267 -165,263 -351,492 -551,781 -60,85 -154,203 -266,338 -13,-115 -17,-210 -15,-289 41,-9 83,-16 124,-19 -43,-14 -83,-26 -121,-35 32,-415 270,-343 376,-587 -290,128 -516,227 -594,513 -146,-55 -249,-115 -321,-176 4,-7 8,-14 12,-20 199,-332 385,-713 613,-1009 134,-173 239,-269 390,-422 499,-505 640,-408 1193,-639 318,-133 608,-402 659,-724 -168,195 -268,338 -571,503 -231,125 -766,258 -1045,361 48,-78 157,-310 194,-415 -399,318 -1079,1369 -1474,1820 31,-202 65,-414 101,-616 13,-72 32,-134 55,-191 226,-38 226,-103 228,-303 1,-91 8,-193 71,-279 56,-77 155,-141 334,-173 -264,-12 -384,25 -454,112 -49,61 -73,147 -106,257 -40,137 -21,174 -183,170 -119,-2 -277,-26 -346,14 -81,47 -257,430 -545,635 -17,-14 -35,-27 -57,-39 8,23 15,45 20,64 -17,11 -35,21 -53,31 -123,65 -268,98 -437,54 45,-113 103,-222 182,-331 212,-291 740,-332 1090,-503 228,-111 278,-230 419,-428 134,-188 243,-224 427,-382 -316,-51 -567,321 -753,443 -198,131 -726,231 -988,270 99,-185 254,-396 393,-579 93,-82 194,-148 302,-195 432,-187 810,83 1239,46 389,-34 728,-296 868,-496 -254,89 -500,308 -847,250 -351,-59 -665,-206 -1059,-123 71,-41 153,-77 250,-106 991,-297 695,-525 1372,-978 -146,-77 -634,356 -735,416 54,-331 40,-489 173,-732 -335,128 -220,488 -382,770 -58,102 -159,166 -277,213 90,-160 110,-333 155,-567 -107,116 -149,319 -288,480 -65,75 -137,136 -220,191 -75,20 -149,41 -216,67 -19,-291 85,-645 203,-827 -251,45 -317,398 -409,696 -38,-208 -107,-311 -230,-550 -6,-11 -11,-21 -17,-31 12,-89 26,-177 53,-256 73,-212 226,-283 292,-428 -181,89 -325,177 -421,343 -19,32 -35,73 -50,120 -52,-104 -103,-245 -157,-525 -111,149 -44,419 -13,604 -29,-3 -58,-6 -85,-10 6,-52 16,-99 25,-135 -31,42 -56,84 -76,126 -309,-63 -521,-242 -767,-443 107,391 421,474 710,632 -31,210 31,400 24,511 -41,288 -88,357 -183,594 -124,308 55,554 -41,962 -3,12 -6,23 -9,35 -109,188 -199,390 -301,714 -72,228 -432,617 -589,870 -117,-437 137,-832 368,-1221 136,-229 265,-455 305,-687 37,-34 76,-69 117,-105 -33,3 -69,12 -106,24 32,-252 -51,-496 -165,-747 108,-193 194,-394 204,-697 -70,211 -165,403 -262,573 -80,-166 -167,-335 -239,-514 20,-22 40,-44 61,-67 -28,2 -54,9 -79,20 -82,-213 -139,-439 -133,-685 -131,239 -108,522 -32,804 -66,64 -126,134 -188,170 -55,-198 -2,-272 17,-485 -146,186 -141,286 -166,515 -23,211 -63,255 -105,338 -175,149 -223,412 -392,472 -90,-640 31,-1167 153,-1514 138,-98 302,-172 487,-217 -153,-35 -314,5 -412,24 20,-46 38,-87 54,-121 -35,42 -67,85 -97,128 -30,4 -49,2 -53,-11 -29,-94 146,-422 333,-563 -355,56 -500,617 -695,739 -155,-202 -299,-602 -323,-985 -1,-21 -2,-42 -2,-62l4 -1 -4 0c-3,-233 55,-457 107,-605 -159,157 -247,357 -236,615 -5,1 -11,1 -16,1 -97,-213 -362,-512 -643,-552 164,122 323,331 457,575 -416,62 -576,177 -663,287 -99,21 -189,69 -272,134 -263,-352 -429,-840 -184,-1188 -208,206 -279,383 -279,547 -222,98 -332,376 -398,651 -157,652 -94,1113 -126,1606 -123,366 -216,687 -348,1047 -48,132 -78,259 -99,386 -137,275 -285,547 -356,623 -761,-823 311,-1187 600,-2311 -76,160 -238,385 -417,560 60,-187 111,-388 222,-584 -223,88 -221,571 -492,720 8,-257 -13,-574 80,-789 167,-386 411,-406 591,-680 -292,64 -642,387 -760,634 -46,97 -78,203 -105,313 -11,-301 32,-611 114,-907 82,-169 173,-328 270,-472 250,-372 536,-1144 780,-1236 -304,-81 -465,569 -624,713 72,-153 127,-818 118,-1006 -5,8 -9,20 -12,25 -122,282 -205,852 -346,1040 -133,-261 -128,-1035 53,-1192 -561,181 -185,1148 -259,1517 -2,9 -4,18 -7,27 -33,68 -63,140 -90,214 -69,131 -164,274 -249,381 -85,-108 -179,-250 -249,-381 -28,-74 -58,-146 -90,-214 -3,-9 -5,-19 -7,-27 -74,-369 302,-1335 -259,-1517 181,157 186,931 53,1192 -141,-188 -223,-758 -346,-1040 -3,-6 -7,-17 -12,-25 -9,188 46,853 118,1006 -159,-144 -320,-794 -624,-713 244,92 530,864 780,1236 97,144 188,303 270,472 81,296 125,606 114,907 -27,-110 -59,-216 -105,-313 -118,-247 -468,-571 -760,-634 180,274 423,295 591,680 93,215 73,532 80,789 -271,-149 -269,-632 -492,-720 111,196 162,397 222,584 -178,-175 -341,-400 -417,-560 289,1125 1361,1489 600,2311 -70,-75 -218,-347 -356,-623 -22,-127 -51,-255 -99,-386 -132,-360 -225,-682 -348,-1047 -32,-493 31,-954 -126,-1606 -66,-275 -176,-553 -398,-651 0,-164 -71,-341 -279,-547 245,348 79,836 -184,1188 -83,-65 -173,-113 -272,-134 -87,-109 -246,-224 -663,-287 134,-243 293,-453 457,-575 -281,41 -546,339 -643,552 -5,-1 -11,-1 -16,-1 11,-258 -77,-457 -236,-615 52,147 110,372 107,605l-4 0 4 1c0,21 -1,42 -2,62 -23,383 -168,783 -323,985 -195,-122 -341,-683 -695,-739 187,142 361,469 333,563 -4,13 -23,15 -53,11 -30,-44 -62,-86 -97,-128 16,34 34,75 54,121 -99,-19 -259,-58 -412,-24 185,45 349,119 487,217 122,347 243,874 153,1514 -169,-60 -217,-322 -392,-472 -42,-83 -82,-127 -105,-338 -25,-229 -20,-329 -166,-515 19,214 72,287 17,485 -62,-36 -122,-105 -188,-170 76,-282 99,-565 -32,-804 6,246 -51,472 -133,685 -25,-10 -52,-17 -79,-20 21,23 41,45 61,67 -72,178 -159,348 -239,514 -97,-170 -192,-362 -262,-573 10,303 96,504 204,697 -114,251 -197,494 -165,747 -37,-13 -72,-21 -106,-24 40,35 79,70 117,105 40,231 169,458 305,687 231,389 485,784 368,1221 -157,-253 -517,-642 -589,-870 -103,-324 -192,-526 -301,-714 -3,-12 -6,-24 -9,-35 -96,-408 82,-654 -41,-962 -95,-236 -142,-306 -183,-594 -7,-111 55,-301 24,-511 290,-157 604,-241 710,-632 -246,201 -458,380 -767,443 -20,-42 -44,-84 -76,-126 9,36 19,83 25,135 -28,4 -56,8 -85,10 31,-185 98,-454 -13,-604 -54,279 -104,420 -157,525 -15,-46 -32,-88 -50,-120 -97,-166 -240,-254 -421,-343 66,146 218,216 292,428 27,79 41,167 53,256 -6,10 -11,21 -17,31 -123,239 -192,342 -230,550 -92,-298 -158,-651 -409,-696 119,181 222,536 203,827 -68,-26 -142,-47 -216,-67 -82,-55 -155,-116 -220,-191 -140,-161 -182,-364 -288,-480 45,234 65,407 155,567 -118,-47 -218,-111 -277,-213 -161,-283 -47,-642 -382,-770 133,243 119,401 173,732 -101,-60 -590,-493 -735,-416 677,453 381,681 1372,978 97,29 179,65 250,106 -394,-83 -708,63 -1059,123 -347,59 -592,-160 -847,-250 140,200 479,462 868,496 430,37 807,-233 1239,-46 108,47 209,114 302,195 139,183 294,394 393,579 -262,-39 -789,-139 -988,-270 -186,-123 -437,-495 -753,-443 185,158 293,193 427,382 141,198 192,317 419,428 350,172 877,212 1090,503 79,108 137,218 182,331 -169,45 -314,12 -437,-54 -18,-10 -36,-20 -53,-31 5,-19 12,-41 20,-64 -22,13 -41,26 -57,39 -287,-205 -463,-588 -545,-635 -69,-40 -228,-17 -346,-14 -162,3 -143,-34 -183,-170 -32,-111 -57,-196 -106,-257 -70,-87 -190,-124 -454,-112 179,32 278,96 334,173 62,86 70,188 71,279 2,201 2,265 228,303 23,57 42,120 55,191 36,202 70,414 101,616 -395,-451 -1076,-1502 -1474,-1820 37,105 146,338 194,415 -279,-103 -814,-236 -1045,-361 -304,-165 -403,-308 -571,-503 51,322 341,591 659,724 553,231 694,134 1193,639 150,152 256,248 390,422 229,296 414,677 613,1009 4,7 8,14 12,20 -72,61 -174,120 -321,176 -78,-286 -304,-385 -594,-513 106,244 345,172 376,587 -38,10 -78,21 -121,35 41,3 82,9 124,19 2,79 -2,174 -15,289 -112,-134 -206,-253 -266,-338 -200,-289 -386,-518 -551,-781 -190,-302 -448,-932 -435,-1267l-20 -57c-115,379 62,795 117,1147 -273,-184 -587,-567 -1055,-584 831,497 731,646 1003,958 -46,114 -74,233 -95,348 -293,-111 -596,-243 -862,-360 -37,-110 -47,-230 -58,-426 -27,130 -35,261 -28,388l-129 -57c47,115 86,175 146,224 15,106 39,207 67,300l-244 -9c-315,-56 -452,-20 -733,-84 -229,-52 -391,-413 -699,-490 285,303 321,577 590,681 289,111 593,-42 954,198 -18,-9 -36,-17 -56,-26 287,275 349,483 345,671 -179,-185 -445,-419 -855,-412 -307,5 -490,191 -764,263 -122,-213 -83,-330 -76,-483 -150,276 -111,386 -57,512 -60,11 -111,18 -156,21 -102,-75 -178,-170 -247,-305 10,122 33,217 68,293 -114,-27 -203,-91 -392,-169 88,280 348,374 619,427 7,5 15,10 22,15 -26,125 -45,229 -61,315 -105,-3 -190,-17 -270,-45 -289,-102 -633,-529 -989,-295 462,47 643,349 869,477 115,65 225,90 332,100 -55,148 -146,222 -387,323l-75 35c-283,-115 -733,-224 -981,-235 195,123 524,203 792,324l-57 27c67,48 131,61 211,53 107,64 194,141 242,237 -269,5 -589,18 -837,-69 -250,-89 -368,-204 -687,-170l61 54c300,88 571,229 871,331 339,115 530,76 847,262 -223,1 -453,-73 -643,80 137,66 1148,100 1444,164 216,47 421,123 623,206 92,172 138,332 346,416 227,91 539,75 818,-7 429,88 827,96 1207,92 111,88 268,185 531,306 -214,207 -400,279 -746,142 21,18 41,35 60,51 -218,-15 -442,-19 -640,-25 -167,-227 -406,-409 -717,-338 385,208 511,418 553,682 -16,1 -31,2 -46,4 -86,-84 -183,-184 -315,-314 -130,-128 -198,-181 -353,-283 -123,-81 -287,-157 -444,-226 -339,-149 -774,-598 -1279,-618 204,135 422,157 530,349 -40,29 34,-2 -76,37 -137,49 -257,64 -360,58 -3,-116 -23,-255 -66,-422 -49,121 -56,264 -77,400 -222,-58 -345,-209 -400,-241 108,208 235,308 376,355 -37,137 -109,255 -285,319 -194,-137 40,-640 -652,-845 59,84 207,238 271,387 54,126 86,260 107,397 -34,-47 -84,-104 -160,-183 41,128 62,181 67,243 21,248 -19,241 34,469 -519,-229 -298,-1591 -1270,-1771 465,409 499,554 561,915 -334,-271 -370,-147 -622,-370 0,-281 45,-562 114,-767 -146,57 -260,320 -314,565 -72,-79 -157,-178 -257,-301 80,204 155,362 227,488 -10,106 -5,196 19,243 -93,-121 -433,-603 -975,-634 521,397 714,581 839,862 -87,23 -181,67 -284,142 119,-24 229,-29 332,-20 28,80 55,170 83,274 -161,-34 -1139,-860 -1873,20 374,-238 1011,-149 1584,147 127,148 250,291 584,361 62,13 125,23 190,30 292,124 633,286 816,450 -44,19 -83,45 -115,78 63,-7 121,-13 176,-17 22,26 39,51 51,76 -673,52 -860,-7 -992,-102 -134,-96 -284,-165 -443,-209 -38,-39 -77,-76 -125,-112 -201,-154 -443,-216 -658,-345 -257,-154 -188,-301 -643,-280 306,131 359,318 556,456 181,127 253,126 378,221 -351,5 -707,105 -998,274 -180,-74 -326,-157 -423,-242 41,156 123,268 229,350 -312,142 -782,221 -1110,253 493,185 970,66 1400,-72 13,-4 27,-9 42,-14 244,82 515,120 709,214 -207,103 -522,133 -613,151 -452,88 -340,-172 -1142,24 784,149 605,264 1188,235 -124,443 -102,400 -420,706 667,-14 190,-768 1545,-1010 28,-5 55,-9 82,-13 -124,290 -494,602 -869,655 532,171 867,-241 1121,-486 73,-71 146,-133 222,-185 601,60 870,433 1327,561l-257 10c391,110 788,296 1167,278 532,-88 574,-382 1280,-230 119,8 235,10 348,8 97,81 166,161 223,249 88,136 148,245 196,335 10,58 11,131 -5,242 -21,148 -69,303 -128,402 -201,-316 -361,-389 -511,-444 -305,-112 -389,-143 -410,-472 -174,514 158,512 337,640 234,166 196,222 349,434 -664,-26 -1078,-96 -1274,-224 -336,-220 -111,-593 -721,-918 120,182 237,376 256,578 -46,-39 -94,-79 -147,-123 -239,-197 -479,-363 -693,-449 -48,-19 -94,-36 -139,-51l-23 -23c3,6 6,12 10,18 -412,-131 -713,-91 -906,-177 418,299 639,225 928,413 129,84 384,348 446,465 -91,-21 -178,-38 -267,-49 -85,-58 -171,-115 -262,-166 -229,-129 -533,-218 -729,-336 -514,-311 -522,-599 -593,-761 -69,306 193,791 410,916 -143,42 -699,-40 -958,-198 252,409 709,366 1112,425 154,23 287,55 405,104 -210,18 -421,91 -660,121 -127,-24 -248,-56 -349,-87 -273,-86 -973,-281 -1382,-107 386,72 1051,161 1331,381 -292,1 -580,65 -796,192 -184,60 -332,157 -396,282 44,-13 87,-26 131,-39 -11,17 -22,35 -31,54 63,-34 121,-65 182,-92 271,-62 560,-79 903,56 124,49 207,107 265,172 -105,71 -258,150 -492,246 244,18 431,-23 585,-94 88,213 68,464 346,678 161,81 -508,-171 -1238,-136 -237,-78 -500,-148 -797,-205 196,92 354,171 483,239 -377,67 -741,233 -986,585 94,-45 197,-84 305,-118 348,63 497,219 733,264 -29,228 -445,404 -732,528 783,47 1196,-669 1876,-442 210,70 419,247 658,419 -144,24 -280,82 -351,195 289,-39 448,-62 585,-38 118,72 245,137 383,183 16,11 32,22 49,33l3 2c-363,29 -726,-5 -1105,47 -525,72 -538,82 -1024,-76 -238,-78 -427,-60 -591,-34 -405,-245 -838,-478 -1182,-523 -359,-47 -797,-3 -895,236 189,-48 416,-30 651,30 -11,1 -21,2 -32,3 125,132 816,451 1015,507 104,29 182,42 244,46 136,91 244,183 306,267 87,118 -931,136 -1006,225 -222,-94 -451,-215 -691,-340 -133,-69 -232,-121 -323,-156 -319,-235 -679,-429 -1065,-314 249,63 442,159 600,271 -41,5 -85,12 -133,20 0,0 116,28 235,58 269,222 427,485 606,667 -487,115 -948,12 -1308,-248 58,149 344,447 631,489 366,54 737,-9 1271,4 -132,232 -365,446 -613,629 -11,-5 -23,-11 -34,-16 7,9 14,18 20,26 -441,321 -924,543 -966,589 659,-65 1008,-195 1237,-354 447,229 870,-295 1167,-553 247,-214 563,-390 893,-607 287,3 629,44 1023,48 -28,16 -56,32 -83,48 -362,210 -632,389 -719,840 210,-172 312,-446 814,-612 109,-47 363,-182 591,-300 130,-13 264,-33 403,-60 -9,172 -9,277 -15,353 -324,58 -589,200 -716,497 336,-146 412,-204 589,-207l-14 18c19,-6 37,-12 53,-18 118,3 282,24 575,57 493,55 713,157 1212,122 -6,6 -12,12 -17,18 -292,29 -419,185 -803,169 -490,-20 -695,43 -1094,210l1603 -125c-179,123 -395,216 -687,270 -188,95 -931,186 -1223,267 -309,85 -785,250 -949,530 246,-228 703,-266 1229,-294 -14,17 -27,36 -39,56 322,-8 538,27 679,88 -218,85 -450,203 -701,366 -654,425 -760,536 -1451,730l-126 59c465,75 1807,-580 2270,-763 85,-34 165,-64 241,-91 8,251 -244,540 -265,590 291,-142 379,-295 515,-508 13,-66 25,-123 38,-173 524,-146 841,-109 1327,-56 200,105 378,232 471,325l-9 6c-19,12 -38,24 -56,34 -252,-53 -499,-100 -569,226 125,-33 230,-54 319,-68 -25,18 -51,38 -78,59 -166,135 -493,430 -757,513 -735,233 -802,-460 -1478,-275 -156,43 -320,152 -364,278 211,-67 499,-246 741,-108 125,71 175,145 265,229 129,120 167,94 318,169 -1510,627 -802,403 -2392,404 598,273 1373,215 2037,104 -86,722 -524,547 -886,798 289,59 595,-39 789,-169 398,-268 125,-594 876,-1029l1217 -723c112,-70 207,-128 301,-193 10,-7 20,-14 29,-21 107,16 235,14 462,-50 250,-70 471,-165 708,-227 -23,99 -35,209 -32,334 2,130 -1,230 -11,311 -175,148 -250,126 -663,128 -357,2 -523,218 -773,339 -242,117 -630,128 -834,232 434,166 990,27 1251,-112 359,-192 410,-6 227,206 -5,6 -326,171 -550,375 -134,122 -202,313 -231,339 -233,212 -629,393 -1188,242 80,169 1236,376 1470,-184 179,-429 1108,-388 953,-1162 70,-10 136,-26 197,-45 -54,75 -120,161 -190,322 295,-88 480,-186 581,-521 38,-27 74,-56 108,-84 61,-51 123,-101 188,-152 82,332 341,573 499,671 -30,-152 -239,-451 -279,-724 2,-40 4,-79 8,-118 448,-324 966,-609 1528,-711 -168,154 -287,232 -246,907 12,195 -57,293 -351,397 390,77 541,-168 548,-408 8,-278 -13,-390 238,-694 371,-348 694,-527 1377,-602 1298,-143 2257,441 2660,1266 18,36 34,73 51,111 174,715 279,1304 265,2048 -6,353 -34,875 -119,1422 -234,1066 -739,2152 -1699,2441l0 413 13 0 5389 0 13 0 0 -413c-961,-289 -1466,-1375 -1699,-2441zm3038 -5511c390,-43 779,-34 1142,32 -422,128 -925,137 -1399,148 69,-78 160,-127 258,-181zm1854 257c356,171 649,425 838,767 -510,-52 -1131,-141 -1968,-513 105,-68 615,-204 1130,-254zm1278 1216c-12,-54 -27,-107 -43,-157 95,-5 184,-2 269,7 38,128 30,265 27,411 -85,-84 -177,-176 -253,-261zm-140 -419c-38,-92 -64,-149 -55,-145 115,53 201,109 266,169 -68,-9 -139,-17 -211,-24zm575 92c-55,-122 -126,-230 -203,-334 110,48 257,100 456,156 -158,-280 -574,-172 -617,-623 189,79 295,143 404,207 56,33 119,60 204,83 172,151 297,265 325,299 135,160 273,342 433,505 -299,10 -567,-160 -915,-269 -29,-9 -58,-17 -87,-25zm-1438 -1199c-74,-31 -146,-61 -215,-91 128,-185 400,-246 637,-279 139,106 357,286 588,480 -74,-33 -153,-59 -238,-74 -285,-50 -567,-45 -772,-36zm-451 -195c-132,-61 -221,-108 -229,-130 -13,-34 207,-49 440,-63 -66,57 -129,124 -210,193zm3286 1564c-97,-70 -61,-67 -175,-156 168,-8 318,-19 453,-32 -88,58 -160,110 -205,141 -25,17 -50,33 -74,47zm1683 -568c-837,-87 -1487,178 -2290,-247 -260,-138 -1189,-832 -1319,-1005 230,53 438,22 641,11 116,88 211,178 275,268 131,181 85,290 262,409 226,152 802,293 1111,207 -265,-149 -1023,-85 -1135,-612 278,74 560,176 838,261 616,188 946,271 1491,624 48,31 89,58 125,83zm1053 -1486c-525,-57 -1165,65 -1617,98 257,-515 242,-460 619,-367 -106,-348 -499,-155 -630,-4 -101,118 -127,252 -167,379 -318,3 -789,-143 -1087,-169 185,-75 385,-161 561,-255 93,-13 189,-36 290,-71 -47,-6 -93,-12 -136,-19 129,-81 233,-168 291,-260 -159,43 -328,140 -504,222 -314,-65 -514,-153 -660,-256 74,-120 191,-179 232,-238 -206,-7 -283,63 -323,166 -253,-223 -333,-500 -741,-754 234,41 447,130 729,165 52,6 104,12 156,18 433,149 888,291 1388,378 99,17 208,39 319,65 62,42 123,88 185,139 336,171 653,288 953,366 116,138 126,275 143,394zm-3414 -205c-85,-31 -171,-59 -269,-73 -202,-30 -455,-5 -741,-15 -203,-92 -386,-198 -509,-264 -249,-134 -290,-179 -564,-284 -19,-7 -85,-33 -99,-40 -85,-46 -32,-6 -74,-56 39,-60 87,-110 142,-153 511,277 1173,552 1614,462 -107,-59 -479,-118 -652,-190 -204,-85 -474,-231 -737,-395 291,-111 672,-123 1028,-150 -269,-269 -780,-161 -1256,2 -233,-157 -443,-320 -574,-455 357,21 841,414 1111,244 -125,-67 -346,-75 -539,-185 -142,-80 -277,-139 -406,-184 330,-46 645,-38 952,5 271,193 523,394 746,583 351,298 679,632 1041,841 -20,66 -47,133 -96,196 -36,46 -76,83 -120,112zm-1655 -106c-530,81 -1604,346 -2106,412 119,-84 266,-107 462,-217 -175,-37 -356,-5 -529,61 232,-187 624,-431 1372,-494 233,43 517,127 802,238zm-3348 -1067c21,10 44,20 67,30 -46,39 -80,74 -98,104 4,-44 14,-89 30,-135zm656 170c202,20 398,10 536,-43 -71,-35 -178,-65 -295,-97 254,-142 506,-264 689,-343 299,52 577,158 882,353 41,26 85,54 132,82 -226,87 -429,170 -572,210 -367,101 -762,152 -1145,235 -427,93 -674,217 -1029,328 51,-210 404,-482 801,-724zm-307 -335c-67,-43 -111,-93 -118,-153 154,-11 297,-21 432,-28 -111,60 -218,122 -314,181zm1150 -592c-98,-18 -193,-40 -285,-73 88,-216 315,-216 440,-348 -258,-22 -439,82 -629,187 -179,99 -248,222 -445,276 307,-263 658,-487 871,-589 93,-45 186,-87 279,-127 252,71 502,172 746,293 -41,23 -83,44 -127,61 -239,89 -488,177 -733,273 -32,12 -71,29 -117,49zm-1846 106c-199,24 -395,81 -593,224 71,-148 301,-402 517,-590 70,-61 141,-116 213,-165 -37,190 -73,370 -137,531zm846 -842c203,-45 409,-59 616,-46 -243,133 -534,334 -746,424 28,-130 72,-256 130,-378zm4817 2410c125,63 255,110 392,135 -125,26 -253,25 -382,-26 -7,-40 -10,-76 -10,-110zm6360 496c429,200 549,453 774,677 -298,-23 -558,-244 -830,-669 19,-3 38,-5 56,-7zm-1640 -700c-355,64 -799,55 -1225,-6 -185,-113 -333,-215 -390,-288 920,-5 1050,-79 1615,294zm-2124 -682c-139,-31 -279,-88 -445,-141 83,-42 161,-95 230,-171 138,-151 269,-469 392,-687 506,40 1079,69 1514,7 -640,385 -1059,795 -1691,992zm-880 -256c-753,-159 -1338,-77 -1914,-145l-14 -6c220,-560 171,-502 844,-424 -18,-13 -37,-27 -57,-40 218,16 416,30 440,19 -319,-223 -435,-273 -874,-337 42,-44 93,-86 151,-125 120,58 244,123 414,189 483,189 810,84 1253,72 30,290 46,598 -244,796zm-1875 -643c-92,127 -115,338 -347,369 -233,-101 -457,-208 -542,-287 274,-61 593,-73 890,-82zm-1526 -239c201,-201 415,-217 715,-237 -55,-46 -7,-24 -112,-67l-265 -45c-413,-6 -327,324 -941,132 206,-219 211,-262 759,-403 -430,-162 -694,77 -963,318 -172,-78 -332,-165 -519,-242 307,-103 616,-186 927,-252 1086,38 1049,328 1779,437 -81,62 -172,117 -281,157 -249,91 -684,169 -1099,202zm-1946 -723c-13,-2 -25,-4 -38,-6 21,-2 40,-3 61,-5l-22 12zm5869 816c5,0 10,1 16,1 71,6 145,13 223,20 -88,111 -159,210 -162,212 -34,-83 -59,-160 -77,-232zm2936 -102c300,-9 639,23 954,95 -361,28 -709,203 -1235,98 107,-63 179,-121 281,-194zm-547 -1413c-104,45 -190,100 -263,161 -35,-68 -54,-140 -86,-227 115,11 233,42 349,66zm-437 345c-199,267 -259,571 -439,683 -95,47 -231,82 -389,98 36,-14 76,-30 123,-51 -153,-20 -327,7 -480,56 -141,-10 -289,-33 -436,-73 -97,-27 -202,-38 -311,-40 64,-141 182,-245 334,-326 465,27 297,-152 840,-54 -155,-207 -429,-128 -714,-152 -232,-19 -351,-170 -582,-218 6,-8 15,-19 19,-24l41 -45c647,-45 1325,-23 1524,318 -153,-521 -547,-450 -871,-507 192,-63 359,-203 619,-156 306,56 483,294 722,491zm-2223 684c-376,31 -756,104 -974,-7 11,-12 22,-23 35,-34 202,-30 414,-36 618,-9 -121,-90 -247,-145 -373,-174 204,-161 283,-281 822,-181 69,13 132,23 189,32 -152,79 -266,204 -317,372zm1818 -1439c76,1 141,9 201,20 -71,-1 -139,-7 -201,-20zm-2497 699c-240,121 -526,246 -807,332 82,-56 181,-107 291,-145 -322,-3 -520,101 -685,235 -206,29 -396,22 -545,-41 141,-109 427,-134 716,-321 267,-16 537,-29 811,-43 62,-3 136,-10 219,-18zm-1147 -871l-3 51c-7,105 -10,214 -20,314 -9,89 -28,164 -56,229 -191,1 -397,-1 -619,-4 383,-149 502,-297 594,-420 41,-55 73,-109 104,-170zm-2481 794c-25,1 -50,3 -75,4 26,-35 37,-83 47,-139 69,-126 113,-225 230,-338 523,-509 1500,-36 1742,-669 -10,253 -4,487 -347,678 -601,335 -909,345 -1597,465zm1946 -1199c-556,502 -1469,104 -1901,465 -588,492 -331,824 -1605,861 297,-227 444,-565 651,-777 197,-106 394,-194 580,-264 178,-67 364,-124 555,-167 416,-93 1123,147 1406,-109 -68,5 -133,7 -194,8l5 -1c-232,-59 -423,-106 -561,-250 173,-103 429,-208 707,-301 172,16 340,37 508,58 -120,162 -144,323 -153,478zm-5006 1739c-162,92 -340,221 -564,435 23,-45 48,-89 74,-133 81,-78 160,-136 221,-172 -45,6 -86,13 -124,21 138,-199 307,-386 497,-561 -37,139 -73,276 -105,410zm709 -889c163,-112 332,-219 503,-319 -14,14 -29,29 -43,43l-457 434c-5,4 -14,13 -21,18 4,-59 10,-118 18,-177zm1164 -673c333,-165 659,-308 950,-430 192,-80 340,-102 465,-90 -203,121 -445,235 -689,335 -266,109 -534,200 -756,263 10,-27 20,-53 30,-78zm3304 -653c220,27 440,54 667,68 -51,38 -99,80 -144,127 -172,176 -302,404 -404,632 -244,-326 -149,-711 -119,-827zm2915 42c-275,53 -453,107 -809,-197 7,-5 16,-9 24,-14 272,88 513,179 785,211zm-369 -391c191,-72 411,-148 612,-210 -57,107 -129,212 -309,247 -91,18 -196,-2 -303,-37zm754 -253c151,-44 281,-77 365,-90 326,-65 569,-65 771,-10 -431,233 -995,454 -1353,454 48,-114 132,-242 217,-354zm2028 -368c64,-40 152,-68 269,-80 199,-20 431,29 630,88 -298,71 -635,115 -976,114 20,-38 46,-79 77,-122zm-355 -1741c-8,57 -17,113 -30,168 -159,50 -285,123 -402,69 162,-65 299,-117 431,-236zm-99 386c-30,71 -67,135 -111,190 -140,174 -278,228 -438,287 -39,-10 -79,-22 -121,-37 177,-97 388,-307 670,-440zm-1105 781c-102,85 -213,195 -336,342 -31,3 -61,6 -92,9 27,-73 60,-158 92,-247 87,-44 183,-73 284,-94 17,-3 34,-6 51,-9zm-441 473c-16,20 -31,41 -47,63 3,-15 8,-34 15,-56 11,-2 22,-5 33,-7zm-450 -1474c27,275 169,402 319,519 -279,-93 -799,36 -1052,126 -43,15 -85,28 -127,40 74,-123 141,-279 200,-477 -183,178 -212,387 -423,525 -120,19 -239,29 -361,38 -134,11 -271,22 -418,45 155,-345 622,-623 1063,-763 279,-89 554,-28 799,-52zm319 520c20,15 39,31 59,46 -27,133 -67,285 -121,438 -176,156 -399,286 -619,391 15,-84 34,-167 58,-251 88,-311 148,-294 262,-477 -297,60 -445,433 -560,744 -14,37 -28,73 -43,107 -41,16 -82,32 -121,46 -927,343 -1706,360 -2660,540l-4 -1c29,-25 59,-49 89,-74 76,-35 150,-66 289,-107 353,-105 398,-280 455,-433 202,-135 405,-245 640,-322 276,-17 554,-7 797,-162 614,-158 923,-469 1479,-488zm-413 1113c-93,98 -200,172 -324,206 3,-35 6,-69 9,-104 106,-37 215,-71 315,-102zm-1302 585c-263,77 -573,81 -930,55l-174 -26c145,-27 278,-46 387,-53 274,-18 509,-5 716,25zm-1153 -1641c-62,93 -113,191 -152,280 -137,312 -242,487 -334,585l-4 2c-69,44 -131,84 -187,120 -553,239 -701,348 -1338,496 144,-87 229,-186 285,-275 307,-125 667,-288 747,-417 -214,48 -426,117 -637,189 91,-186 82,-367 373,-675 -464,88 -404,328 -571,532 -43,53 -138,191 -245,286 -104,31 -208,59 -314,81 -518,111 -1082,92 -1602,203 125,-186 246,-327 364,-434 392,-93 836,46 1176,-327 211,1 425,-12 649,-124 164,-82 396,-201 668,-280 405,-117 886,-162 1123,-244zm-2683 1560c-43,48 -100,111 -208,210 -458,59 -650,255 -861,535 -271,128 -587,278 -923,478 69,-208 156,-400 247,-562 204,-362 617,-441 1098,-522 263,-45 459,-86 646,-139zm-270 274c-82,97 -218,183 -394,275 109,-123 232,-197 394,-275zm-2262 1307c-40,30 -81,60 -121,91 -432,335 -816,687 -1119,1121 -15,21 -29,42 -44,63 -2,-108 -29,-211 -152,-309 43,135 29,347 3,537 -491,781 -1292,2075 -1475,2371 80,-503 699,-1475 868,-1938 37,-30 77,-60 120,-94 413,-328 344,-1136 929,-1259 -129,-47 -233,-46 -320,-14 430,-542 1012,-1030 1569,-1287 -87,206 -175,454 -259,718zm2647 -2496c-170,77 -372,120 -681,89 233,-97 457,-94 681,-89zm-1030 -98c59,-325 8,-321 316,-456 -623,-33 -898,878 -1316,1407 -89,91 -184,177 -276,241 -43,29 -84,58 -124,86 -16,6 -32,12 -49,17 16,-130 15,-234 5,-324 153,-162 285,-327 427,-473 -196,25 -343,117 -483,226 -27,-82 -58,-158 -82,-245 10,-8 19,-15 27,-22 534,-449 1420,-941 2258,-1242 267,-8 562,-10 823,1 -184,136 -313,378 -405,458 -174,150 -698,101 -1030,275 -33,17 -63,34 -92,51zm-1348 -384c-246,17 -416,116 -473,345 -38,29 -75,56 -109,82 -86,66 -227,132 -316,184 29,-139 10,-242 -12,-346 174,-176 395,-311 693,-388 241,-62 427,-107 593,-141 -132,90 -258,178 -377,263zm-441 1015c16,112 29,207 30,299 -123,92 -259,176 -433,223 19,-102 39,-208 116,-316 96,-71 197,-142 287,-206zm-63 700c-29,61 -65,126 -111,199 -205,327 -444,521 -760,755 -144,107 -279,203 -428,313l-1429 1844c35,-149 1068,-1823 1106,-1967 39,-66 76,-125 109,-174 143,-213 298,-403 491,-588 448,-63 769,-205 1021,-382zm3547 -2105c110,8 210,20 296,36 122,23 241,168 396,256 -335,101 -679,320 -1029,270 128,-151 178,-386 337,-562zm1414 -566c73,-78 161,-162 309,-262 40,93 123,180 234,255 -155,17 -333,18 -543,7zm2653 -780c-343,-2 -490,160 -620,331 -112,47 -237,97 -379,147 352,-399 460,-679 658,-1009 108,-180 418,-396 443,-411 164,-96 312,-118 455,-124 64,141 153,271 316,355 77,40 166,75 257,104 -281,196 -485,479 -837,615 121,-258 292,-470 399,-719 -302,225 -317,443 -692,711zm-1700 669c-161,-48 -304,-123 -391,-215 274,-147 619,-75 807,-368 24,-100 72,-235 141,-380 166,-349 450,-759 797,-893 -378,-8 -823,506 -1013,761 -84,113 -121,226 -177,318 -330,-23 -738,34 -862,128 79,-50 176,-144 282,-214 534,-347 1860,-1085 2048,-1588 -153,217 -692,591 -983,659 25,-85 30,-164 25,-240 181,-175 341,-345 540,-402 130,-154 471,-110 650,-5 60,35 107,80 145,131 -284,305 -624,388 -1150,1310 -308,540 -524,848 -862,999zm104 -696c-60,61 -145,104 -291,117 -26,2 -51,5 -75,8 105,-35 225,-76 366,-125zm-1085 399c-144,118 -244,254 -395,373 -49,-5 -99,-10 -151,-16 240,-175 399,-280 546,-358zm-2101 351c46,-22 89,-46 128,-71 289,-186 370,-371 939,-440 -127,-44 -233,-62 -325,-62 96,-42 192,-85 293,-144 -277,-18 -699,134 -1172,369 25,-89 51,-176 86,-254 65,-7 129,-16 193,-27 437,-76 782,-233 1105,-500 244,145 312,310 488,375 -461,420 -1048,728 -1735,754zm125 -827c66,-43 151,-68 261,-67 -210,-88 -374,-30 -509,82 -130,4 -264,-1 -365,-31 7,-13 14,-28 22,-44 -21,10 -41,20 -60,31 -7,-3 -13,-6 -20,-9 417,-203 990,-92 1441,-409 61,17 116,36 165,55 -232,169 -484,353 -915,390l-21 2zm-455 247c-105,143 -189,289 -270,346 -327,237 -894,472 -1136,557 -310,108 -903,266 -1228,347l425 -622c230,35 445,87 671,0 391,-150 394,-24 705,-47 100,-7 10,19 71,-21 -97,-132 -415,-180 -627,-165 -327,24 -282,170 -631,-24 101,-70 868,-285 1042,-311 66,-10 132,-18 199,-24 99,89 201,154 392,-23 129,-5 259,-8 388,-15zm2730 -424l1 -3c-49,17 -99,36 -147,54 146,-151 288,-344 399,-571 163,-46 317,-88 447,-126 131,-39 245,-99 348,-171 -78,210 -366,398 -789,647 -81,48 -172,110 -260,171zm-538 129c-107,-18 -195,-93 -251,-273 187,-105 443,-197 705,-278 -131,191 -283,378 -454,550zm3349 -1262c10,27 20,55 30,83 -34,-4 -69,-8 -107,-12 25,-26 51,-50 77,-71zm-1789 -118c-50,33 -99,63 -160,113 41,-88 81,-168 120,-243 13,45 27,88 40,130zm57 -305c27,-45 53,-87 79,-127 -12,47 -20,98 -25,153 -22,-5 -39,-14 -53,-26zm237 -1069l-8 11c-40,55 -68,112 -94,174l-345 13c125,-86 304,-128 448,-197zm-173 349c-32,71 -72,146 -131,226 -3,-10 -6,-19 -10,-27 -9,24 -17,48 -24,71 -37,47 -82,95 -135,144 -120,-57 -167,-194 -200,-366 167,-30 337,-42 500,-48zm-725 -505c17,111 25,216 31,316 -131,47 -258,89 -378,122 46,-155 225,-321 320,-412 9,-9 18,-18 27,-26zm42 596c8,201 24,395 97,609 70,245 5,425 -132,560 43,-198 59,-412 37,-640 -45,241 -145,524 -295,815 -149,73 -320,124 -483,164 -292,71 -560,167 -859,129 130,-115 285,-250 428,-366 185,-151 393,-189 450,-208 -170,-59 -401,-19 -563,79 -37,22 -88,61 -143,104l17 -20c56,-81 108,-163 158,-249l184 -184c223,-215 418,-405 677,-592 132,-95 277,-159 427,-201zm-1928 -951c-15,-52 -40,-102 -84,-150 -35,199 -40,358 -26,488 -138,334 -381,690 -695,838 -3,-107 -24,-206 -42,-298 37,-136 111,-270 278,-385l105 -81c-146,-25 -263,9 -357,76 21,-30 48,-60 85,-88 238,-182 485,-227 556,-602 -214,250 -375,257 -517,341 22,-23 56,-64 83,-115 11,-6 21,-13 32,-20 295,-197 479,-706 628,-751 28,-17 93,-12 158,-7 -103,215 -138,483 -206,754zm81 788c38,44 78,82 118,118 -91,53 -178,115 -308,150 54,-87 121,-175 190,-269zm282 282c85,106 132,239 81,469 -2,7 -3,14 -5,22 -312,346 -658,691 -852,803 52,-338 185,-546 318,-745 -112,41 -267,195 -331,300 -87,142 -146,365 -233,507 -65,-5 -137,-10 -222,-14l238 -194c186,-256 -115,-216 466,-736 -310,8 -366,274 -525,467 -173,211 -307,285 -612,410 -16,7 -33,13 -49,20 92,-157 229,-302 514,-384 -488,1 -751,284 -1021,572 -63,23 -126,46 -188,69 -266,101 -500,246 -712,328 106,-264 181,-442 243,-563 166,-100 338,-200 525,-305 27,-15 58,-32 92,-50 117,-35 263,-90 450,-185 99,-50 196,-105 284,-162 202,-86 396,-159 535,-195 197,-51 564,-61 700,-193 87,-84 191,-169 305,-240zm-1570 95c-3,8 -6,16 -10,22 -120,256 -400,402 -731,483 456,-576 532,-1055 636,-1485 174,-67 305,-67 426,-79 -195,242 -312,443 -305,842 1,81 -4,153 -16,217zm-966 279c115,-325 284,-697 481,-954l-3 14c-89,356 -271,717 -469,962 -3,-7 -6,-14 -9,-22zm1259 -4545c44,29 87,61 127,97l0 0c-10,27 -21,51 -33,72 -50,-41 -79,-102 -94,-170zm284 327c122,312 13,723 -151,1007 -25,28 -51,55 -77,82l-64 -330c16,-286 184,-506 291,-758zm-1426 103c67,213 156,422 223,607 -92,146 -171,269 -214,366 -113,257 -181,502 -243,966 -12,86 -23,173 -37,258 -79,150 -130,287 -189,489 -110,-283 9,-578 -313,-771 22,164 71,324 72,502 1,231 -34,332 45,549 13,35 27,69 41,102l-4 4c-150,149 -245,200 -451,324 -140,85 -317,225 -443,291 57,-189 110,-390 164,-591 121,-183 217,-440 268,-873 86,-226 186,-433 311,-606 138,-191 264,-178 357,-349 125,-231 5,-471 176,-873 59,-31 123,-44 207,-59 -65,-12 -123,-16 -174,-14 48,-97 113,-203 201,-321zm273 756c37,123 56,229 39,312 -35,173 -100,323 -178,464 -70,73 -123,145 -147,201 37,-462 158,-745 286,-977zm-780 2530c84,171 153,340 115,575 -37,229 -221,739 -404,1131 -88,58 -182,111 -275,164 39,-172 91,-339 -25,-565 167,-126 331,-232 436,-254 -107,-83 -334,-1 -532,105 -93,-125 -29,-53 -127,-97 14,44 34,90 54,138 -78,45 -147,92 -197,129 -96,71 -180,142 -271,206 -110,25 -218,56 -317,96 141,-284 306,-514 478,-707 35,-20 68,-48 99,-88 15,-19 28,-39 41,-59 348,-347 704,-561 927,-773zm-548 2160c-13,15 -25,28 -36,38 -1,-4 -1,-7 -2,-11 13,-9 26,-18 38,-27zm-139 -780c31,94 48,189 22,280 -44,155 -160,228 -193,383 -259,159 -476,307 -713,481 -80,58 -147,116 -217,172l-492 509c25,-151 59,-285 102,-408 300,-589 799,-820 1080,-1069 90,-80 245,-217 410,-347zm-154 993c16,153 2,199 -90,438 -3,8 -6,16 -9,24 -318,113 -543,252 -813,379 14,-26 27,-52 39,-79 188,-214 596,-551 873,-762zm-534 1193c-254,327 -546,624 -793,972 -531,749 -1359,2499 -1611,3268 144,-905 1042,-2937 1420,-3461 385,-534 702,-726 985,-779zm-2096 1750c-12,9 -24,18 -37,27 13,-250 48,-449 100,-611 11,210 -6,420 -64,584zm368 -1074c17,-15 34,-30 51,-44 -13,29 -27,55 -41,78 -3,-10 -7,-21 -10,-34zm203 -569c-4,1 -8,3 -13,4 -12,-214 5,-238 41,-445 23,-135 69,-303 75,-475 6,-168 -25,-340 -151,-490 42,465 -55,524 -156,936 -27,110 -48,224 -64,318 -15,-324 -24,-661 -39,-822 -14,-152 -33,-283 -53,-405 124,-156 263,-308 408,-451 30,207 55,452 58,780 2,254 -35,680 -107,1049zm-609 493c-44,57 -82,109 -106,155 -122,236 -181,468 -216,692 -68,-131 -115,-256 -127,-376 -14,-148 -27,-267 -58,-361 35,-279 86,-552 159,-810 83,205 206,370 299,574 17,38 33,80 48,126zm-379 1398c-22,234 -54,452 -151,647 -27,-324 -42,-679 -36,-1043 0,-21 1,-41 1,-62 55,170 125,315 185,458zm133 -2411c22,-58 44,-115 68,-170 49,-114 110,-227 181,-340 38,319 53,635 32,933 -96,-73 -180,-263 -281,-423zm1384 -1733c164,-130 327,-245 482,-343 119,-75 227,-104 326,-114 -57,328 -252,509 -405,706 -219,282 -254,537 -432,799 -36,-92 -99,-465 -108,-585 -21,-289 45,-323 136,-464zm826 -715c-25,-3 -51,-5 -78,-7 22,-39 45,-75 67,-108 6,35 10,74 11,116zm178 -353c28,-30 56,-57 83,-84 -18,64 -33,124 -46,178 -12,-36 -24,-67 -37,-95zm1034 -2295c36,-77 77,-156 122,-242 59,-114 110,-209 155,-290 -11,235 32,299 -277,532zm-1 -1857c-210,490 -188,1037 -211,1463 -20,-70 -40,-140 -61,-208 -162,-519 -39,-963 272,-1255zm-424 2215c-48,96 -95,195 -130,312 -99,333 -73,748 -318,922 -81,-843 -164,-436 175,-1032 180,-316 119,-794 68,-1135 -17,213 -40,384 -67,524 -167,-73 -404,-31 -569,-15 12,-89 26,-174 40,-256 70,-203 95,-422 181,-604 88,-185 238,-379 489,-514 -23,243 -50,492 -19,753 54,452 168,721 151,1047zm-281 -368c-190,901 -565,388 -529,1509 -14,198 -37,336 -73,449 -134,-248 -53,-741 -52,-1051 -54,187 -110,381 -136,492 -133,480 -30,625 88,773 -53,84 -121,165 -208,270 -131,157 -238,291 -363,414 0,-44 7,-93 27,-150 55,-161 170,-275 203,-439 -216,183 -369,483 -452,781 -32,24 -65,47 -100,71 146,-181 377,-669 175,-960 20,-77 39,-150 56,-218 46,-186 76,-357 101,-516 18,-4 36,-8 55,-12 -18,-3 -35,-6 -52,-8 126,-812 113,-1264 1262,-1405zm-1473 2361c-3,88 -20,188 -69,296 20,-96 44,-197 69,-296zm-426 772c-90,147 -230,391 -385,645 -12,-153 -12,-318 13,-520 21,-171 45,-374 75,-591 90,-58 172,-116 239,-179 293,-275 147,-643 344,-878 -37,149 -75,288 -111,409 -156,520 -190,837 -175,1115zm-881 1028c-175,259 -356,1485 -479,1547 -8,-105 238,-1244 224,-1381 93,-245 142,-519 64,-803 -16,138 -295,541 -347,695 -12,-182 236,-605 259,-738 31,-176 142,-315 287,-436 85,345 -75,726 -8,1115zm252 -1290c24,-15 48,-31 73,-46 -11,42 -22,83 -34,119 -13,-22 -26,-47 -38,-74zm956 -1440c-73,29 -129,74 -174,129 -167,205 -180,543 -328,668 -24,20 -47,39 -69,56 45,-296 99,-602 165,-885 171,-88 328,-152 468,-272 -19,104 -40,205 -62,304zm-798 1000c-83,44 -159,78 -256,143 -39,-163 -67,-350 -79,-533 181,-259 355,-413 518,-521 -74,306 -129,629 -183,911zm-481 321c-57,52 -122,113 -195,188 -59,-94 12,-298 89,-465 36,75 72,165 107,276zm3005 -4230c-78,15 -150,40 -216,72 23,-22 47,-42 72,-61 -224,29 -364,189 -473,402 -11,14 -21,28 -31,42 -119,167 -167,407 -242,611 -45,125 -118,217 -203,293 94,-499 207,-1006 400,-1476 78,-42 180,-87 322,-142 -102,-3 -188,-1 -264,6 70,-154 149,-304 241,-447 -167,70 -312,249 -438,481 -248,71 -336,238 -582,511 -96,107 -372,267 -550,347 18,-79 36,-158 58,-237 272,-451 753,-800 908,-1133 44,-342 366,-546 682,-690 210,410 349,895 331,1220 -4,67 -9,134 -16,202zm-1562 1713c-6,7 -13,13 -19,20 -201,226 -128,357 -297,516 -27,25 -58,53 -97,81 64,-177 135,-327 216,-436 -176,100 -307,299 -410,548 -66,31 -145,61 -241,90 19,-260 31,-474 53,-657 62,-126 121,-254 171,-384 47,-124 83,-245 113,-364 92,-105 212,-206 374,-312 208,-136 381,-236 476,-352 93,-113 154,-201 205,-272 -173,452 -291,968 -357,1293 -16,-267 -165,-517 -289,-530 81,203 108,469 101,759zm1403 -3202l2 -1 1 8 -3 -7zm-919 346c-40,66 -69,125 -135,159 -7,-8 -13,-16 -20,-24 44,-46 95,-91 156,-135zm-680 -546c18,266 214,498 294,765 -202,233 -359,544 -504,732 8,-304 -50,-567 -17,-865 31,-270 89,-442 227,-632zm325 964c-6,80 -48,159 -110,240 37,-87 72,-166 110,-240zm-1730 4128c-12,19 -23,38 -35,56 -90,-38 -196,-81 -290,-138 33,-56 63,-128 91,-220 13,-43 28,-89 45,-132 86,129 164,271 189,434zm-168 256l-1 2c-164,239 -249,993 -287,1256 -38,-264 -123,-1017 -287,-1256l-1 -2c100,-81 199,-113 288,-184 90,71 188,103 288,184zm-435 2038c-52,-154 -331,-557 -347,-695 -78,284 -29,558 64,803 -15,137 221,1265 213,1370 -123,-62 -294,-1278 -468,-1537 67,-389 -93,-771 -8,-1115 145,121 256,260 287,436 24,133 271,557 259,738zm-470 3299c61,-143 130,-288 185,-458 0,21 1,41 1,62 6,364 -9,719 -36,1043 -97,-196 -129,-414 -151,-647zm127 -1288c-31,93 -44,212 -58,361 -11,119 -59,245 -127,376 -34,-224 -94,-456 -216,-692 -24,-46 -62,-98 -106,-155 15,-46 31,-88 48,-126 93,-205 216,-370 299,-574 72,258 124,531 159,810zm-543 1039c-58,-164 -75,-374 -64,-584 52,162 88,361 100,611 -13,-10 -25,-18 -37,-27zm283 -2162c-101,160 -185,350 -281,423 -21,-298 -6,-615 32,-933 70,113 131,227 181,340 24,56 47,112 68,170zm135 -2354c35,-111 70,-201 107,-276 77,167 147,370 89,465 -74,-75 -138,-137 -195,-188zm806 -1372c-35,71 -66,155 -109,246 -20,43 -48,81 -82,115 -34,-34 -62,-72 -82,-115 -43,-92 -74,-176 -109,-246 40,-57 78,-112 110,-166 33,-55 60,-103 82,-146 22,43 49,91 82,146 32,54 70,109 110,166zm-323 463c-94,58 -200,101 -290,138 -12,-19 -23,-37 -35,-56 24,-164 103,-305 189,-434 17,44 33,89 45,132 28,92 58,164 91,220zm-1729 -5010c138,190 197,363 227,632 34,298 -25,561 -17,865 -146,-188 -302,-499 -504,-732 80,-267 276,-500 294,-765zm-680 546c60,45 111,89 156,135 -7,8 -13,16 -20,24 -66,-34 -95,-93 -135,-159zm355 418c39,74 73,153 110,240 -62,-82 -104,-160 -110,-240zm472 1126c22,79 40,158 58,237 -177,-80 -454,-240 -550,-347 -246,-274 -333,-440 -582,-511 -126,-232 -272,-410 -438,-481 91,143 171,293 241,447 -75,-6 -162,-8 -264,-6 142,55 244,100 322,142 193,470 306,977 400,1476 -84,-76 -157,-168 -203,-293 -75,-204 -123,-444 -242,-611 -10,-14 -20,-28 -31,-42 -109,-212 -250,-372 -473,-402 25,19 49,40 72,61 -66,-32 -138,-57 -216,-72 -6,-68 -12,-135 -16,-202 -18,-325 121,-809 331,-1220 316,144 638,348 682,690 155,333 636,682 908,1133zm167 726c30,119 66,240 113,364 50,131 109,258 171,384 22,183 34,398 53,657 -96,-29 -175,-59 -241,-90 -102,-249 -233,-448 -410,-548 81,109 153,259 216,436 -39,-29 -70,-56 -97,-81 -169,-159 -97,-289 -297,-516 -6,-7 -12,-13 -19,-20 -7,-290 20,-557 101,-759 -123,13 -272,264 -289,530 -66,-325 -184,-841 -357,-1293 51,71 113,159 205,272 95,117 268,216 476,352 162,106 282,206 374,312zm787 2391c-12,183 -39,370 -79,533 -97,-65 -173,-99 -256,-143 -54,-282 -109,-605 -183,-911 164,108 337,262 518,521zm-177 830c-12,27 -25,52 -38,74 -12,-37 -23,-77 -34,-119 24,15 49,30 73,46zm-550 -1471c66,283 120,589 165,885 -22,-17 -45,-35 -69,-56 -148,-125 -161,-463 -328,-668 -45,-55 -101,-100 -174,-129 -22,-99 -43,-200 -62,-304 139,120 297,184 468,272zm219 1266c29,217 54,420 75,591 25,203 25,367 13,520 -155,-253 -296,-498 -385,-645 14,-278 -20,-595 -175,-1115 -36,-121 -74,-260 -111,-409 197,235 51,604 344,878 67,63 150,121 239,179zm22 1583c-20,122 -39,253 -53,405 -15,161 -24,498 -39,822 -16,-94 -37,-208 -64,-318 -101,-412 -197,-471 -156,-936 -126,150 -157,322 -151,490 6,172 52,340 75,475 36,207 53,231 41,445 -4,-1 -9,-3 -13,-4 -72,-369 -110,-795 -107,-1049 3,-328 29,-573 58,-780 145,143 284,295 408,451zm-156 1947c-3,13 -6,24 -10,34 -14,-23 -28,-49 -41,-78 17,14 34,29 51,44zm-1543 -6508c15,82 28,168 40,256 -166,-16 -402,-58 -569,15 -27,-139 -50,-311 -67,-524 -52,341 -112,819 68,1135 338,596 255,189 175,1032 -245,-174 -219,-589 -318,-922 -35,-117 -82,-216 -130,-312 -17,-325 97,-595 151,-1047 31,-261 4,-510 -19,-753 251,135 401,329 489,514 86,182 112,401 181,604zm-521 312c1149,140 1136,592 1262,1405 -17,2 -34,5 -52,8 19,4 37,7 55,12 25,158 55,330 101,516 17,68 36,142 56,218 -202,291 28,778 175,960 -35,-23 -69,-47 -100,-71 -83,-298 -236,-598 -452,-781 33,165 148,278 203,439 20,57 27,106 27,150 -125,-123 -232,-257 -363,-414 -87,-104 -155,-186 -208,-270 118,-148 220,-293 88,-773 -26,-111 -82,-305 -136,-492 1,311 82,803 -52,1051 -36,-112 -58,-251 -73,-449 36,-1121 -339,-608 -529,-1509zm1473 2361c25,99 49,199 69,296 -49,-107 -66,-208 -69,-296zm-142 1013c91,141 157,175 136,464 -9,120 -72,493 -108,585 -178,-262 -212,-517 -432,-799 -153,-197 -348,-378 -405,-706 99,10 207,39 326,114 155,97 319,213 482,343zm-826 -715c2,-42 5,-81 11,-116 23,34 45,70 67,108 -28,2 -54,5 -78,7zm-178 -353c-13,27 -26,58 -37,95 -13,-54 -28,-114 -46,-178 28,27 55,54 83,84zm-323 -5272l-3 7 1 -8 2 1zm-710 1120c311,292 434,737 272,1255 -21,68 -41,138 -61,208 -22,-427 -1,-973 -211,-1463zm-1 1857c-309,-233 -266,-298 -277,-532 45,81 96,176 155,290 45,86 85,165 122,242zm-839 -1343c89,117 154,223 201,321 -52,-2 -109,2 -174,14 85,14 149,27 207,59 172,402 51,643 176,873 93,171 219,159 357,349 125,173 225,381 311,606 51,433 147,690 268,873 54,202 107,402 164,591 -126,-66 -303,-206 -443,-291 -206,-125 -301,-175 -451,-324l-4 -4c15,-33 29,-67 41,-102 79,-217 45,-318 45,-549 1,-179 50,-338 72,-502 -322,193 -203,488 -313,771 -58,-202 -110,-339 -189,-489 -13,-85 -25,-171 -37,-258 -62,-464 -130,-709 -243,-966 -42,-97 -122,-219 -214,-366 67,-184 156,-393 223,-607zm-273 756c128,233 249,515 286,977 -24,-56 -77,-128 -147,-201 -77,-141 -142,-291 -178,-464 -17,-83 2,-189 39,-312zm780 2530c223,212 578,426 927,773 12,21 26,41 41,59 32,40 65,68 99,88 172,193 337,423 478,707 -100,-39 -208,-71 -317,-96 -91,-64 -175,-135 -271,-206 -50,-37 -120,-84 -197,-129 20,-48 40,-94 54,-138 -98,44 -34,-28 -127,97 -198,-106 -425,-188 -532,-105 105,22 270,129 436,254 -116,226 -64,393 -25,565 -93,-53 -188,-106 -275,-164 -183,-393 -368,-903 -404,-1131 -38,-235 30,-404 115,-575zm686 1380c165,130 321,267 410,347 281,250 780,480 1080,1069 43,122 77,257 102,408l-492 -509c-70,-55 -137,-113 -217,-172 -237,-174 -454,-322 -713,-481 -32,-155 -149,-228 -193,-383 -26,-90 -9,-186 22,-280zm-1076 -552c-3,7 -6,15 -9,22 -198,-245 -380,-606 -469,-962l-3 -14c197,257 366,629 481,954zm-1259 -4545c-15,68 -44,129 -94,170 -12,-21 -23,-46 -33,-72l0 0c40,-37 83,-69 127,-97zm-284 327c107,252 275,472 291,758l-64 330c-26,-26 -51,-54 -77,-82 -164,-283 -273,-695 -151,-1007zm682 2959c104,429 180,908 636,1485 -332,-81 -611,-227 -731,-483 -3,-7 -6,-14 -10,-22 -12,-64 -17,-136 -16,-217 7,-400 -110,-600 -305,-842 122,12 253,12 426,79zm-700 -160c27,51 60,92 83,115 -142,-84 -303,-90 -517,-341 71,375 318,420 556,602 37,28 64,57 85,88 -94,-66 -211,-101 -357,-76l105 81c167,115 241,248 278,385 -18,92 -39,191 -42,298 -313,-148 -557,-505 -695,-838 14,-130 9,-289 -26,-488 -44,47 -68,98 -84,150 -68,-271 -103,-539 -206,-754 65,-5 130,-10 158,7 149,45 333,555 628,751 11,7 22,14 32,20zm-693 763c69,94 136,182 190,269 -130,-35 -217,-98 -308,-150 40,-36 80,-75 118,-118zm-282 282c113,71 217,156 305,240 136,132 504,141 700,193 139,36 333,109 535,195 88,56 185,112 284,162 188,95 333,150 450,185 33,18 64,35 92,50 187,106 360,205 525,305 63,122 137,299 243,563 -212,-82 -446,-227 -712,-328 -62,-23 -125,-46 -188,-69 -270,-289 -533,-571 -1021,-572 284,82 421,227 514,384 -16,-7 -33,-13 -49,-20 -305,-125 -440,-199 -612,-410 -159,-194 -215,-460 -525,-467 581,520 280,481 466,736l238 194c-84,4 -157,10 -222,14 -87,-142 -145,-364 -233,-507 -64,-105 -219,-259 -331,-300 133,199 266,408 318,745 -193,-111 -540,-457 -852,-803 -2,-7 -4,-14 -5,-22 -51,-230 -4,-362 81,-469zm3473 1706c13,9 26,18 38,27 -1,4 -1,7 -2,11 -11,-10 -24,-23 -36,-38zm293 213c277,211 686,548 873,762 12,27 25,53 39,79 -270,-127 -495,-266 -813,-379 -3,-8 -6,-16 -9,-24 -92,-239 -106,-285 -90,-438zm-5289 -2633c9,9 18,17 27,26 95,90 274,256 320,412 -119,-33 -246,-75 -378,-122 5,-100 14,-205 31,-316zm-898 156c144,69 322,112 448,197l-345 -13c-27,-61 -55,-119 -94,-174l-8 -11zm173 349c163,7 333,18 500,48 -33,172 -80,310 -200,366 -53,-50 -97,-98 -135,-144 -7,-23 -15,-47 -24,-71 -4,8 -7,17 -10,27 -59,-80 -99,-155 -131,-226zm684 91c150,43 295,106 427,201 259,187 455,377 677,592l184 184c51,86 103,168 158,249l17 20c-55,-43 -106,-82 -143,-104 -162,-98 -393,-138 -563,-79 56,19 265,57 450,208 143,116 297,252 428,366 -300,39 -567,-57 -859,-129 -163,-40 -335,-91 -483,-164 -151,-291 -251,-574 -295,-815 -21,227 -5,442 37,640 -137,-135 -202,-315 -132,-560 73,-214 89,-408 97,-609zm1963 1915c451,317 1024,206 1441,409 -6,3 -13,6 -20,9 -19,-11 -39,-21 -60,-31 8,16 15,31 22,44 -101,30 -234,35 -365,31 -135,-112 -299,-170 -509,-82 111,-1 195,24 261,67l-21 -2c-432,-37 -684,-222 -915,-390 49,-20 104,-38 165,-55zm-350 145c323,267 668,425 1105,500 64,11 128,20 193,27 34,78 60,165 86,254 -473,-235 -895,-387 -1172,-369 101,59 196,102 293,144 -92,0 -197,18 -325,62 569,69 650,254 939,440 39,25 82,49 128,71 -687,-26 -1274,-334 -1735,-754 176,-65 244,-230 488,-375zm1577 549c129,7 259,10 388,15 190,177 293,111 392,23 67,6 133,14 199,24 174,27 941,242 1042,311 -348,193 -304,47 -631,24 -213,-15 -530,32 -627,165 61,39 -29,14 71,21 311,23 314,-103 705,47 226,87 441,35 671,0l425 622c-326,-81 -918,-238 -1228,-347 -242,-85 -809,-320 -1136,-557 -80,-58 -165,-203 -270,-346zm2675 621c282,53 600,245 985,779 377,524 1275,2577 1420,3482 -253,-769 -1080,-2541 -1611,-3290 -246,-347 -539,-644 -793,-972zm233 1238c-23,105 -42,208 -12,346 -89,-52 -230,-119 -316,-184 -34,-26 -70,-54 -109,-82 -57,-230 -227,-329 -473,-345 -118,-84 -245,-172 -377,-263 166,33 352,78 593,141 297,76 518,212 693,388zm-5099 -2154c-171,-172 -323,-359 -454,-550 263,81 519,173 705,278 -57,179 -144,254 -251,273zm-792 -649c111,227 253,420 399,571 -48,-18 -98,-36 -147,-54l1 3c-87,-60 -178,-123 -260,-171 -423,-248 -711,-437 -789,-647 102,71 216,132 348,171 130,38 285,80 447,126zm-768 -730c13,-42 27,-86 40,-130 39,75 80,156 120,243 -61,-50 -111,-80 -160,-113zm-57 -305c-14,12 -32,21 -53,26 -6,-55 -14,-106 -25,-153 26,40 52,82 79,127zm-279 474c-5,76 0,155 25,240 -290,-68 -829,-442 -983,-659 188,503 1514,1240 2048,1588 106,69 203,164 282,214 -124,-94 -532,-151 -862,-128 -56,-92 -92,-205 -177,-318 -189,-254 -635,-769 -1013,-761 347,134 631,544 797,893 69,146 117,280 141,380 188,294 533,221 807,368 -87,92 -230,167 -391,215 -338,-151 -554,-459 -862,-999 -525,-921 -865,-1004 -1150,-1310 39,-51 85,-96 145,-131 179,-105 520,-149 650,5 199,58 359,227 540,402zm572 1336c141,49 261,90 366,125 -24,-3 -49,-6 -75,-8 -145,-13 -231,-56 -291,-117zm1085 399c147,78 306,183 546,358 -52,6 -102,11 -151,16 -151,-120 -252,-256 -395,-373zm-28 407c-210,11 -388,10 -543,-7 111,-74 194,-161 234,-255 149,100 236,184 309,262zm-3081 -2194c26,22 52,45 77,71 -37,4 -73,8 -107,12 10,-28 20,-56 30,-83zm-128 348c143,5 291,28 455,124 25,15 335,231 443,411 197,330 305,610 658,1009 -142,-51 -267,-100 -379,-147 -129,-171 -276,-333 -620,-331 -376,-268 -391,-485 -692,-711 107,249 277,461 399,719 -352,-136 -555,-419 -837,-615 91,-29 180,-64 257,-104 163,-85 253,-214 316,-355zm5615 2401c838,301 1724,793 2258,1242 8,7 17,14 27,22 -23,87 -54,163 -82,245 -141,-109 -288,-201 -483,-226 142,146 274,311 427,473 -10,90 -10,194 5,324 -16,-5 -33,-11 -49,-17 -40,-28 -81,-57 -124,-86 -92,-63 -187,-150 -276,-241 -418,-529 -692,-1440 -1316,-1407 307,134 257,131 316,456 -29,-17 -59,-34 -92,-51 -331,-174 -856,-126 -1030,-275 -93,-80 -221,-322 -405,-458 262,-12 556,-9 823,-1zm2493 1417c91,64 191,135 287,206 77,107 97,214 116,316 -174,-47 -311,-131 -433,-223 1,-92 14,-187 30,-299zm63 700c252,177 573,319 1021,382 193,186 348,375 491,588 33,49 70,108 109,174 38,144 1071,1818 1106,1967l-1429 -1844c-149,-111 -284,-206 -428,-313 -316,-234 -555,-428 -760,-755 -46,-73 -82,-138 -111,-199zm-3547 -2105c159,176 209,411 337,562 -350,50 -694,-169 -1029,-270 155,-87 275,-233 396,-256 85,-16 186,-28 296,-36zm-1904 227c236,82 717,127 1123,244 272,78 504,198 668,280 224,111 438,125 649,124 340,373 784,233 1176,327 117,107 238,248 364,434 -520,-111 -1084,-92 -1602,-203 -106,-23 -210,-50 -314,-81 -107,-95 -202,-234 -245,-286 -167,-205 -107,-444 -571,-532 290,308 281,489 373,675 -212,-71 -423,-141 -637,-189 81,130 440,292 747,417 56,90 142,188 285,275 -637,-148 -785,-257 -1338,-496 -57,-37 -119,-76 -187,-120l-4 -2c-92,-98 -197,-273 -334,-585 -39,-89 -90,-187 -152,-280zm2569 645c224,-5 447,-7 681,89 -309,31 -510,-12 -681,-89zm115 915c187,53 383,94 646,139 481,82 895,161 1098,522 91,162 178,354 247,562 -336,-200 -652,-350 -923,-478 -211,-280 -403,-476 -861,-535 -108,-99 -165,-162 -208,-210zm2113 1734c8,59 14,118 18,177 -7,-6 -16,-14 -21,-18l-457 -434c-15,-15 -29,-29 -43,-43 172,100 341,207 503,319zm-1843 -1460c162,78 285,152 394,275 -176,-92 -312,-179 -394,-275zm679 787c10,25 20,51 30,78 -222,-63 -490,-154 -756,-263 -244,-100 -487,-214 -689,-335 125,-12 273,10 465,90 292,122 617,265 950,430zm-6182 -3197c245,25 520,-37 799,52 441,141 908,418 1063,763 -147,-23 -284,-34 -418,-45 -122,-10 -241,-19 -361,-38 -211,-137 -239,-346 -423,-525 59,198 126,354 200,477 -42,-11 -84,-25 -127,-40 -253,-90 -772,-219 -1052,-126 149,-117 292,-245 319,-519zm-319 520c556,19 865,330 1479,488 243,156 521,145 797,162 235,77 438,187 640,322 57,153 102,328 455,433 139,41 213,72 289,107 30,24 60,49 89,74l-4 1c-954,-180 -1732,-197 -2660,-540 -39,-14 -79,-30 -121,-46 -15,-34 -29,-70 -43,-107 -115,-311 -263,-684 -560,-744 114,182 174,166 262,477 24,84 43,167 58,251 -220,-105 -443,-236 -619,-391 -54,-153 -93,-306 -121,-438 20,-15 39,-31 59,-46zm-1775 -685c132,119 269,172 431,236 -116,54 -243,-18 -402,-69 -12,-54 -22,-110 -30,-168zm99 386c282,134 492,344 670,440 -41,14 -82,26 -121,37 -161,-59 -299,-113 -438,-287 -44,-55 -80,-119 -111,-190zm1105 781c17,3 35,6 51,9 101,20 197,50 284,94 32,89 65,174 92,247 -30,-3 -61,-6 -92,-9 -123,-147 -234,-257 -336,-342zm441 473c11,2 22,4 33,7 7,22 12,40 15,56 -16,-22 -32,-42 -47,-63zm543 159c99,31 209,65 315,102 3,34 7,69 9,104 -124,-34 -231,-107 -324,-206zm239 562c-107,36 -212,55 -303,37 -180,-35 -252,-141 -309,-247 201,62 421,138 612,210zm-754 -253c86,112 169,240 217,354 -358,0 -922,-222 -1353,-454 202,-55 445,-55 771,10 84,13 215,46 365,90zm-2028 -368c31,43 57,84 77,122 -340,1 -677,-42 -976,-114 199,-59 431,-109 630,-88 116,12 204,40 269,80zm2413 1011c272,-32 513,-124 785,-211 9,5 17,10 24,14 -356,304 -535,250 -809,197zm1433 -368c207,-30 441,-42 716,-25 110,7 243,26 387,53l-174 26c-357,27 -667,22 -930,-55zm2008 266c278,93 534,198 707,301 -138,144 -330,191 -561,250l5 1c-61,-1 -126,-4 -194,-8 283,256 990,16 1406,109 192,43 378,100 555,167 186,70 383,159 580,264 207,212 354,551 651,777 -1274,-37 -1017,-369 -1605,-861 -432,-361 -1344,37 -1901,-465 -8,-155 -33,-316 -153,-478 168,-21 336,-42 508,-58zm4070 2558c58,122 102,249 130,378 -212,-91 -504,-291 -746,-424 208,-13 414,1 616,46zm-1186 -336l-22 -12c20,2 40,3 61,5 -13,2 -26,4 -38,6zm-1264 -622c10,57 21,104 47,139 -25,-2 -50,-3 -75,-4 -688,-119 -996,-130 -1597,-465 -343,-191 -337,-425 -347,-678 242,633 1219,161 1742,669 117,113 160,212 230,338zm-2144 -1539c30,116 125,500 -119,827 -102,-228 -232,-457 -404,-632 -45,-46 -93,-89 -144,-127 227,-14 447,-40 667,-68zm-365 880c31,61 63,115 104,170 92,123 211,271 594,420 -222,4 -428,5 -619,4 -28,-65 -47,-140 -56,-229 -10,-100 -13,-209 -20,-314l-3 -51zm-3644 172c-61,13 -129,19 -201,20 59,-10 125,-19 201,-20zm-841 410c116,-24 235,-55 349,-66 -32,87 -51,159 -86,227 -73,-61 -159,-116 -263,-161zm437 345c239,-197 416,-435 722,-491 260,-48 427,93 619,156 -324,57 -717,-14 -871,507 199,-341 877,-363 1524,-318l41 45c5,6 13,16 19,24 -231,48 -349,199 -582,218 -285,23 -559,-56 -714,152 543,-98 375,80 840,54 152,81 270,185 334,326 -109,2 -215,13 -311,40 -147,40 -295,64 -436,73 -153,-49 -327,-76 -480,-56 47,21 88,38 123,51 -159,-16 -294,-51 -389,-98 -181,-112 -240,-415 -439,-683zm2901 -57c83,8 157,15 219,18 274,14 544,27 811,43 289,187 575,212 716,321 -149,63 -339,70 -545,41 -165,-134 -363,-238 -685,-235 110,37 209,89 291,145 -282,-85 -568,-211 -807,-332zm3375 338c311,66 620,149 927,252 -187,78 -348,164 -519,242 -269,-241 -533,-480 -963,-318 548,141 553,184 759,403 -615,191 -528,-139 -941,-132l-265 45c-105,43 -57,21 -112,67 300,20 514,36 715,237 -415,-33 -850,-111 -1099,-202 -109,-40 -200,-95 -281,-157 731,-109 694,-399 1779,-437zm1501 471c93,40 186,82 279,127 213,102 564,326 871,589 -198,-54 -267,-176 -445,-276 -189,-105 -371,-209 -629,-187 125,132 352,132 440,348 -92,33 -186,55 -285,73 -46,-20 -85,-36 -117,-49 -245,-95 -494,-183 -733,-273 -44,-16 -86,-37 -127,-61 244,-121 494,-222 746,-293zm1730 1432c16,46 27,91 30,135 -18,-30 -51,-65 -98,-104 24,-10 46,-20 67,-30zm-348 -165c-96,-59 -203,-120 -314,-181 135,7 278,17 432,28 -7,60 -51,110 -118,153zm-6242 -1559c-125,29 -252,84 -373,174 204,-26 417,-21 618,9 13,11 24,23 35,34 -218,110 -598,37 -974,7 -52,-169 -165,-294 -317,-372 57,-9 120,-20 189,-32 539,-100 618,20 822,181zm983 442c59,39 110,80 151,125 -439,64 -555,114 -874,337 24,10 222,-3 440,-19 -20,13 -39,26 -57,40 673,-77 624,-136 844,424l-14 6c-576,68 -1161,-14 -1914,145 -291,-197 -274,-505 -244,-796 444,12 770,117 1253,-72 170,-67 295,-132 414,-189zm451 414c297,9 616,22 890,82 -85,79 -309,186 -542,287 -232,-31 -255,-242 -347,-369zm-2398 -146c-18,72 -43,149 -77,232 -3,-1 -74,-100 -162,-212 77,-7 152,-13 223,-20 5,0 10,-1 16,-1zm-534 46c122,217 254,536 392,687 70,76 147,129 230,171 -166,53 -306,110 -445,141 -632,-197 -1051,-607 -1691,-992 435,62 1008,33 1514,-7zm-2402 -148c102,73 174,131 281,194 -526,104 -873,-70 -1235,-98 315,-73 654,-104 954,-95zm-1185 2529c19,2 37,5 56,7 -272,426 -533,647 -830,669 225,-224 345,-477 774,-677zm1640 -700c565,-373 695,-299 1615,-294 -57,72 -205,175 -390,288 -426,61 -870,70 -1225,6zm1617 665c17,-119 28,-256 143,-394 299,-78 617,-195 953,-366 61,-51 123,-97 185,-139 111,-26 219,-48 319,-65 500,-87 956,-229 1388,-378 52,-6 104,-11 156,-18 283,-35 496,-125 729,-165 -409,254 -488,530 -741,754 -41,-103 -117,-173 -323,-166 41,60 158,119 232,238 -146,103 -346,191 -660,256 -176,-82 -346,-180 -504,-222 58,92 163,179 291,260 -44,7 -89,13 -136,19 100,35 197,58 290,71 176,95 377,180 561,255 -298,25 -769,172 -1087,169 -40,-127 -66,-261 -167,-379 -131,-152 -523,-344 -630,4 377,-93 362,-148 619,367 -452,-34 -1092,-155 -1617,-98zm4986 -1937c307,-43 622,-51 952,-5 -130,45 -265,104 -406,184 -193,109 -415,117 -539,185 270,171 754,-223 1111,-244 -131,135 -341,298 -574,455 -476,-163 -987,-271 -1256,-2 356,27 738,39 1028,150 -263,164 -532,310 -737,395 -173,72 -544,131 -652,190 440,90 1103,-186 1614,-462 55,43 103,93 142,153 -42,51 11,10 -74,56 -14,7 -80,33 -99,40 -274,106 -315,150 -564,284 -123,66 -306,172 -509,264 -285,10 -538,-15 -741,15 -98,14 -184,42 -269,73 -44,-29 -84,-66 -120,-112 -49,-62 -77,-130 -96,-196 363,-209 690,-544 1041,-841 223,-189 475,-390 746,-583zm1845 245c184,79 435,202 689,343 -117,32 -223,62 -295,97 138,53 335,63 536,43 397,242 750,514 801,724 -356,-111 -602,-235 -1029,-328 -384,-83 -779,-134 -1145,-235 -144,-39 -346,-123 -572,-210 47,-28 91,-56 132,-82 305,-195 583,-301 882,-353zm-3728 1231c0,34 -3,70 -10,110 -129,50 -256,51 -382,26 137,-25 267,-72 392,-135zm-2050 1948c36,-25 77,-52 125,-83 546,-353 876,-436 1491,-624 279,-85 560,-187 838,-261 -113,526 -870,463 -1135,612 309,86 885,-55 1111,-207 178,-119 131,-228 262,-409 65,-89 160,-179 275,-268 203,11 411,42 641,-11 -130,173 -1059,868 -1319,1005 -803,425 -1453,160 -2290,247zm4017 -1797c285,-111 569,-195 802,-238 748,64 1139,307 1372,494 -173,-66 -354,-98 -529,-61 196,110 343,133 462,217 -502,-66 -1576,-332 -2106,-412zm2631 1048c98,54 189,102 258,181 -474,-12 -978,-20 -1399,-148 362,-66 752,-75 1142,-32zm-1679 -247c-82,-69 -144,-136 -210,-193 233,15 452,29 440,63 -8,22 -97,69 -229,130zm-873 -175c237,33 509,95 637,279 -68,29 -141,60 -215,91 -204,-9 -487,-14 -772,36 -85,15 -164,41 -238,74 231,-195 449,-374 588,-480zm-1260 1058c85,-23 149,-50 204,-83 110,-65 215,-128 404,-207 -44,451 -459,343 -617,623 199,-56 346,-108 456,-156 -76,104 -148,212 -203,334 -29,8 -58,16 -87,25 -348,108 -616,279 -915,269 160,-163 297,-345 433,-505 28,-33 154,-148 325,-299zm1957 -378c515,50 1025,186 1130,254 -837,372 -1458,461 -1968,513 189,-342 482,-596 838,-767zm-1138 797c-72,7 -142,15 -211,24 64,-59 150,-116 266,-169 10,-5 -17,52 -55,145zm-1973 263c-24,-14 -49,-30 -74,-47 -45,-30 -117,-82 -205,-141 136,12 285,24 453,32 -114,89 -78,86 -175,156zm1607 6c85,-9 175,-12 269,-7 -16,51 -31,104 -43,157 -76,84 -168,177 -253,261 -3,-146 -11,-283 27,-411zm4648 -4913c-81,-78 -160,-136 -221,-172 45,6 86,13 124,21 -138,-199 -307,-386 -497,-561 37,139 73,276 105,410 162,92 340,221 564,435 -23,-45 -48,-89 -74,-133zm504 -68c2,-108 29,-211 152,-309 -43,135 -29,347 -3,537 491,781 1292,2075 1475,2371 -80,-503 -699,-1475 -868,-1938 -37,-30 -77,-60 -120,-94 -413,-328 -344,-1136 -929,-1259 129,-47 233,-46 320,-14 -430,-542 -1012,-1030 -1569,-1287 87,206 175,454 259,718 40,30 81,60 121,91 432,335 816,687 1119,1121 15,21 29,42 44,63zm-866 360c37,190 73,370 137,531 199,24 395,81 593,224 -71,-148 -301,-402 -517,-590 -70,-61 -141,-116 -213,-165z"/>
 </g>
</svg>
